#!OML:ASF X:\für Bonn\!DataBase\2005_08_11_Bastian_Final\c3d\Bastian.ASF
:FULLY-SPECIFIED
:DEGREES
136
root -0.316429 17.0861 23.2488 -914.821 -26.0855 -898.857
lowerback 23.6854 0.214564 -2.99405
upperback 13.7231 -3.11605 -0.554071
thorax 2.01807 -2.90703 1.71237
lowerneck -19.7232 -9.65028 -6.90303
upperneck 6.79487 -11.9058 4.99867
head 5.89319 -5.68508 1.35003
rclavicle -9.93923e-015 -1.19271e-014
rhumerus -27.9609 10.2478 -87.9288
rradius 34.882
rwrist -3.20946
rhand -10.349 4.56093
rfingers 7.12502
rthumb 15.6475 -24.8263
lclavicle -9.93923e-015 -1.19271e-014
lhumerus -198.235 -185.619 261.565
lradius 18.7148
lwrist 12.1722
lhand -11.0889 -9.04952
lfingers 7.12502
lthumb 14.9348 20.392
rfemur -3.22994 -12.462 19.6945
rtibia 48.2313
rfoot -14.8742 -16.2137
rtoes -9.17052
lfemur -0.115513 -0.300755 -20.0738
ltibia 31.1977
lfoot -9.15187 -7.86937
ltoes -5.20832
137
root -0.300248 17.0702 23.2701 -915.011 -26.2517 -898.91
lowerback 24.547 0.376523 -3.15165
upperback 13.9354 -3.0893 -0.705947
thorax 1.84343 -2.94587 1.66387
lowerneck -19.8773 -9.70145 -6.87182
upperneck 6.62672 -11.996 5.14919
head 5.87601 -5.72149 1.37839
rclavicle 4.77083e-015 -2.70347e-014
rhumerus -27.7541 10.4636 -88.0365
rradius 35.3701
rwrist -3.15378
rhand -10.3427 4.58591
rfingers 7.12502
rthumb 15.6536 -24.8008
lclavicle 4.77083e-015 -2.70347e-014
lhumerus -197.998 -184.53 261.366
lradius 18.9065
lwrist 12.6139
lhand -11.1023 -9.06905
lfingers 7.12502
lthumb 14.922 20.3735
rfemur -3.98991 -12.586 19.5357
rtibia 49.612
rfoot -14.5206 -15.5526
rtoes -8.80607
lfemur -0.158601 -0.371336 -20.1408
ltibia 31.4985
lfoot -9.18166 -7.95401
ltoes -5.24709
138
root -0.282599 17.0543 23.2918 -915.218 -26.4327 -898.946
lowerback 25.4348 0.535589 -3.26575
upperback 14.1564 -3.06974 -0.872823
thorax 1.66909 -2.98763 1.57565
lowerneck -20.0543 -9.76767 -6.87116
upperneck 6.47882 -12.1047 5.35396
head 5.87558 -5.76306 1.42419
rclavicle -2.14687e-014 -4.77083e-015
rhumerus -27.5938 10.6797 -88.1733
rradius 35.9373
rwrist -3.06567
rhand -10.291 4.60127
rfingers 7.12502
rthumb 15.7034 -24.7816
lclavicle -2.14687e-014 -4.77083e-015
lhumerus -197.749 -183.453 261.115
lradius 19.1261
lwrist 13.012
lhand -11.1332 -9.08356
lfingers 7.12502
lthumb 14.8922 20.3612
rfemur -4.70658 -12.7265 19.3987
rtibia 50.8908
rfoot -14.2573 -14.9273
rtoes -8.63393
lfemur -0.188496 -0.464407 -20.1902
ltibia 31.7757
lfoot -9.22901 -8.05135
ltoes -5.49837
139
root -0.26326 17.0395 23.3121 -915.393 -26.6126 -899.005
lowerback 26.3049 0.700306 -3.40952
upperback 14.382 -3.0566 -1.0365
thorax 1.51596 -3.03627 1.50637
lowerneck -20.2544 -9.84507 -6.91242
upperneck 6.32391 -12.2188 5.57107
head 5.88021 -5.80797 1.47827
rclavicle 1.08934e-013 4.29375e-014
rhumerus -27.4043 11.0014 -88.3032
rradius 36.4877
rwrist -3.07633
rhand -10.2692 4.6621
rfingers 7.12502
rthumb 15.7244 -24.7191
lclavicle 1.08934e-013 4.29375e-014
lhumerus -197.514 -182.463 260.855
lradius 19.3814
lwrist 13.424
lhand -11.1953 -9.11133
lfingers 7.12502
lthumb 14.8323 20.3378
rfemur -5.42634 -12.7438 19.2743
rtibia 52.0111
rfoot -14.0932 -14.3152
rtoes -8.36073
lfemur -0.226827 -0.551847 -20.2624
ltibia 32.04
lfoot -9.26796 -8.11723
ltoes -5.73678
140
root -0.242466 17.0277 23.3331 -915.603 -26.81 -899.016
lowerback 27.2075 0.845916 -3.48806
upperback 14.6076 -3.06373 -1.20326
thorax 1.3516 -3.09227 1.40205
lowerneck -20.4073 -9.90766 -6.96651
upperneck 6.14825 -12.3155 5.81711
head 5.87315 -5.84384 1.54769
rclavicle 8.0309e-014 3.4191e-014
rhumerus -27.2423 11.3929 -88.4618
rradius 37.0671
rwrist -3.1431
rhand -10.2322 4.71199
rfingers 7.12502
rthumb 15.76 -24.6664
lclavicle 8.0309e-014 3.4191e-014
lhumerus -197.252 -181.441 260.579
lradius 19.6151
lwrist 13.8926
lhand -11.3422 -9.15495
lfingers 7.12502
lthumb 14.6908 20.3046
rfemur -6.14045 -12.661 19.2203
rtibia 52.9357
rfoot -13.9469 -13.6671
rtoes -8.15374
lfemur -0.261901 -0.63464 -20.2733
ltibia 32.2995
lfoot -9.27423 -8.24286
ltoes -5.76536
141
root -0.220266 17.0148 23.3559 -915.795 -27.0037 -899.036
lowerback 28.1057 1.01466 -3.56201
upperback 14.8717 -3.05817 -1.37653
thorax 1.23846 -3.14865 1.28075
lowerneck -20.7005 -10.0027 -6.97316
upperneck 6.01724 -12.4621 6.05807
head 5.9018 -5.90103 1.59528
rclavicle 3.69739e-014 3.18055e-014
rhumerus -26.9672 11.812 -88.6266
rradius 37.6133
rwrist -3.2332
rhand -10.2438 4.8329
rfingers 7.12502
rthumb 15.7489 -24.5463
lclavicle 3.69739e-014 3.18055e-014
lhumerus -196.914 -180.336 260.269
lradius 19.8699
lwrist 14.3876
lhand -11.5592 -9.19719
lfingers 7.12502
lthumb 14.4818 20.2774
rfemur -6.79901 -12.4759 19.1872
rtibia 53.6444
rfoot -13.8625 -13.092
rtoes -7.89175
lfemur -0.322644 -0.723484 -20.2997
ltibia 32.567
lfoot -9.29139 -8.31694
ltoes -6.00333
142
root -0.19651 17.0003 23.3813 -915.961 -27.2165 -899.066
lowerback 29.0062 1.18647 -3.66481
upperback 15.1394 -3.06355 -1.52526
thorax 1.13884 -3.21534 1.20351
lowerneck -20.9881 -10.091 -7.03118
upperneck 5.84815 -12.5876 6.29963
head 5.91929 -5.95097 1.65418
rclavicle -2.38542e-015 -2.78299e-014
rhumerus -26.6497 12.201 -88.7321
rradius 38.1189
rwrist -3.27404
rhand -10.2721 5.00446
rfingers 7.12502
rthumb 15.7216 -24.3769
lclavicle -2.38542e-015 -2.78299e-014
lhumerus -196.525 -179.022 259.999
lradius 20.1263
lwrist 15.1932
lhand -11.8313 -9.22544
lfingers 7.12502
lthumb 14.2196 20.2678
rfemur -7.43387 -12.2866 19.1477
rtibia 54.1568
rfoot -13.8359 -12.566
rtoes -7.82771
lfemur -0.428005 -0.821642 -20.3365
ltibia 32.8446
lfoot -9.27519 -8.42933
ltoes -5.79313
143
root -0.17191 16.9855 23.4087 -916.132 -27.4466 -899.083
lowerback 29.9117 1.37696 -3.72163
upperback 15.4456 -3.05169 -1.66363
thorax 1.08668 -3.27836 1.10296
lowerneck -21.3104 -10.2031 -7.02973
upperneck 5.62969 -12.7569 6.51251
head 5.92311 -6.02534 1.68929
rclavicle 5.32743e-014 1.59028e-014
rhumerus -26.2657 12.6296 -88.8181
rradius 38.6412
rwrist -3.38327
rhand -10.3784 5.12668
rfingers 7.12502
rthumb 15.6193 -24.2627
lclavicle 5.32743e-014 1.59028e-014
lhumerus -196.002 -177.902 259.672
lradius 20.3383
lwrist 15.7246
lhand -12.0841 -9.23933
lfingers 7.12502
lthumb 13.9759 20.2709
rfemur -8.01526 -12.0504 19.1234
rtibia 54.4877
rfoot -13.894 -12.0803
rtoes -7.70798
lfemur -0.553384 -0.939422 -20.3709
ltibia 33.1502
lfoot -9.26451 -8.52665
ltoes -5.69783
144
root -0.145948 16.971 23.436 -916.29 -27.6712 -899.104
lowerback 30.8128 1.57509 -3.81368
upperback 15.756 -3.04767 -1.78311
thorax 1.05223 -3.35094 1.04284
lowerneck -21.5692 -10.3133 -7.0855
upperneck 5.36566 -12.9178 6.77684
head 5.90981 -6.0961 1.7531
rclavicle -4.77083e-015 -4.21423e-014
rhumerus -25.8235 13.1112 -88.8578
rradius 39.1266
rwrist -3.46787
rhand -10.4708 5.32495
rfingers 7.12502
rthumb 15.5302 -24.0714
lclavicle -4.77083e-015 -4.21423e-014
lhumerus -195.443 -176.966 259.331
lradius 20.5118
lwrist 16.1272
lhand -12.3709 -9.29804
lfingers 7.12502
lthumb 13.6996 20.231
rfemur -8.56858 -11.765 19.109
rtibia 54.6699
rfoot -14.0062 -11.6488
rtoes -7.52142
lfemur -0.705575 -1.02791 -20.405
ltibia 33.4714
lfoot -9.30481 -8.61376
ltoes -6.13266
145
root -0.118493 16.9551 23.4638 -916.433 -27.9261 -899.101
lowerback 31.6933 1.77339 -3.90076
upperback 16.0844 -3.04983 -1.86514
thorax 1.05811 -3.43174 1.01897
lowerneck -21.8415 -10.424 -7.15652
upperneck 5.06133 -13.0742 7.0292
head 5.88546 -6.16841 1.81616
rclavicle 3.18055e-015 -9.54166e-014
rhumerus -25.2897 13.5784 -88.836
rradius 39.5498
rwrist -3.47823
rhand -10.611 5.50551
rfingers 7.12502
rthumb 15.3952 -23.9013
lclavicle 3.18055e-015 -9.54166e-014
lhumerus -194.804 -176.14 258.989
lradius 20.6529
lwrist 16.4462
lhand -12.6351 -9.34916
lfingers 7.12502
lthumb 13.4449 20.1969
rfemur -9.10171 -11.529 19.1077
rtibia 54.7074
rfoot -14.152 -11.2625
rtoes -7.51756
lfemur -0.89608 -1.17158 -20.4237
ltibia 33.7962
lfoot -9.27128 -8.70961
ltoes -5.98769
146
root -0.0909928 16.9396 23.4909 -916.582 -28.1841 -899.098
lowerback 33.0344 2.00131 -3.99784
upperback 16.1919 -3.06087 -1.88863
thorax 0.81143 -3.50644 0.974645
lowerneck -22.0311 -10.5174 -7.14909
upperneck 4.71792 -13.2291 7.2567
head 5.82978 -6.24353 1.86455
rclavicle -3.57812e-014 1.90833e-014
rhumerus -24.8058 14.0799 -88.8376
rradius 40.0143
rwrist -3.55718
rhand -10.7792 5.64238
rfingers 7.12502
rthumb 15.2332 -23.7768
lclavicle -3.57812e-014 1.90833e-014
lhumerus -194.164 -175.288 258.614
lradius 20.772
lwrist 16.7149
lhand -12.9217 -9.38654
lfingers 7.12502
lthumb 13.1687 20.1776
rfemur -9.58686 -11.297 19.0946
rtibia 54.6252
rfoot -14.3216 -10.8927
rtoes -7.53642
lfemur -1.08322 -1.27338 -20.4356
ltibia 34.1265
lfoot -9.28394 -8.81551
ltoes -6.4108
